<svg width="512" height="512" viewBox="0 0 512 512" fill="none" xmlns="http://www.w3.org/2000/svg">
  <!-- Solid Blue Background -->
  <rect width="512" height="512" fill="#2563eb"/>
  
  <!-- Simple Shield -->
  <path d="M256 80C256 80 180 100 140 140C140 140 120 260 140 360C160 460 256 440 256 440C256 440 352 460 372 360C392 260 372 140 372 140C332 100 256 80 256 80Z" fill="white"/>
  
  <!-- Letter C -->
  <path d="M256 180C220 180 190 210 190 246V266C190 302 220 332 256 332C276 332 294 324 308 310L276 278C268 286 262 290 256 290C242 290 232 280 232 266V246C232 232 242 222 256 222C262 222 268 226 276 234L308 202C294 188 276 180 256 180Z" fill="#2563eb"/>
</svg>

