<svg width="1200" height="400" viewBox="0 0 1200 400" fill="none" xmlns="http://www.w3.org/2000/svg">
  <!-- Shield Icon -->
  <g transform="translate(200, 200)">
    <!-- Shield Background -->
    <path d="M0 -100C0 -100 -60 -86 -88 -58C-88 -58 -100 20 -88 118C-76 216 0 204 0 204C0 204 76 216 88 118C100 20 88 -58 88 -58C60 -86 0 -100 0 -100Z" fill="#2563eb"/>
    
    <!-- Shield Inner -->
    <path d="M0 -72C0 -72 -44 -60 -64 -40C-64 -40 -74 28 -64 108C-54 188 0 178 0 178C0 178 54 188 64 108C74 28 64 -40 64 -40C44 -60 0 -72 0 -72Z" fill="white"/>
    
    <!-- Scale Symbol -->
    <rect x="-3" y="-30" width="6" height="80" fill="#2563eb" rx="1"/>
    <line x1="-36" y1="-10" x2="36" y2="-10" stroke="#2563eb" stroke-width="4" stroke-linecap="round"/>
    <path d="M-36 -10 L-44 8 L-28 8 Z" fill="#2563eb"/>
    <path d="M36 -10 L44 8 L28 8 Z" fill="#2563eb"/>
    <rect x="-24" y="46" width="48" height="6" fill="#2563eb" rx="1"/>
  </g>
  
  <!-- Text: CONSULATE -->
  <text x="350" y="240" font-family="Inter, -apple-system, sans-serif" font-size="140" font-weight="700" fill="#0f172a" letter-spacing="-0.02em">CONSULATE</text>
  
  <!-- Subtitle: AI Dispute Resolution -->
  <text x="350" y="290" font-family="Inter, -apple-system, sans-serif" font-size="42" font-weight="500" fill="#64748b" letter-spacing="0.05em">AI DISPUTE RESOLUTION</text>
</svg>

